<svg width="1020.8150146484375px" height="120.8px" xmlns="http://www.w3.org/2000/svg" viewBox="-260.4075073242187 14.600000000000001 1020.8150146484375 120.8" style="background: rgba(0, 0, 0, 0);" preserveAspectRatio="xMidYMid"><defs><filter id="editing-extrusion" x="-100%" y="-100%" width="300%" height="300%"><feFlood result="color1" flood-color="#444"></feFlood><feConvolveMatrix order="8,8" divisor="1" kernelMatrix="1 0 0 0 0 0 0 0 0 1 0 0 0 0 0 0 0 0 1 0 0 0 0 0 0 0 0 1 0 0 0 0 0 0 0 0 1 0 0 0 0 0 0 0 0 1 0 0 0 0 0 0 0 0 1 0 0 0 0 0 0 0 0 1" in="SourceAlpha" result="extrude"></feConvolveMatrix><feComposite in="color1" in2="extrude" result="comp-extrude" operator="in"></feComposite><feOffset dx="4" dy="4" in="comp-extrude" result="offset-extrude"></feOffset><feMerge><feMergeNode in="offset-extrude"></feMergeNode><feMergeNode in="SourceGraphic"></feMergeNode></feMerge></filter></defs><g filter="url(#editing-extrusion)"><g transform="translate(-114.16766548156738, 99)"><path d="M29.18 1.28L29.18 1.28L29.18 1.28Q20.99 1.28 20.22-10.37L20.22-10.37L9.22-10.37L9.22-10.37Q7.94-7.42 7.04-4.86L7.04-4.86L5.38 0L-3.58 0L16.58-42.24L30.34-42.24L33.02-11.14L33.02-11.14Q33.66-4.42 36.22-2.43L36.22-2.43L36.22-2.43Q34.37 1.28 29.18 1.28ZM14.72-23.17L11.20-15.04L20.03-15.04L19.26-31.49L19.26-33.22L14.72-23.17ZM71.36-26.62L71.36-26.62L71.36-26.62Q71.36-23.94 69.12-22.27L69.12-22.27L69.12-22.27Q66.88-20.61 63.23-20.61L63.23-20.61L63.23-20.61Q61.70-20.61 60.80-21.06L60.80-21.06L60.80-21.06Q61.50-22.72 61.73-24.80L61.73-24.80L61.73-24.80Q61.95-26.88 61.95-27.46L61.95-27.46L61.95-27.46Q61.95-30.14 60.10-30.14L60.10-30.14L60.10-30.14Q58.82-30.14 57.38-28.54L57.38-28.54L57.38-28.54Q55.94-26.94 54.72-24.45L54.72-24.45L54.72-24.45Q52.03-18.69 52.03-12.86L52.03-12.86L52.03-12.86Q52.03-9.66 53.25-8.22L53.25-8.22L53.25-8.22Q54.46-6.78 57.15-6.78L57.15-6.78L57.15-6.78Q60.86-6.78 63.81-9.86L63.81-9.86L63.81-9.86Q64.64-10.82 65.09-11.90L65.09-11.90L65.09-11.90Q67.52-10.62 67.52-7.10L67.52-7.10L67.52-7.10Q67.52-3.52 63.55-1.15L63.55-1.15L63.55-1.15Q59.46 1.28 52.93 1.28L52.93 1.28L52.93 1.28Q39.94 1.28 39.94-12.48L39.94-12.48L39.94-12.48Q39.94-22.53 45.63-28.29L45.63-28.29L45.63-28.29Q51.14-33.92 61.25-33.92L61.25-33.92L61.25-33.92Q71.36-33.92 71.36-26.62ZM74.11-6.40L74.11-6.40L74.11-6.40Q74.11-8.13 75.01-12.48L75.01-12.48L78.40-29.76L74.62-29.76L74.88-31.68L74.88-31.68Q82.56-33.98 89.98-39.62L89.98-39.62L93.06-39.62L91.52-32.64L96.51-32.64L95.94-29.76L91.01-29.76L87.74-12.48L87.74-12.48Q86.91-8.51 86.91-7.17L86.91-7.17L86.91-7.17Q86.91-4.10 89.60-3.46L89.60-3.46L89.60-3.46Q88.96-1.28 86.66 0L86.66 0L86.66 0Q84.35 1.28 81.09 1.28L81.09 1.28L81.09 1.28Q77.82 1.28 75.97-0.77L75.97-0.77L75.97-0.77Q74.11-2.82 74.11-6.40ZM111.55-3.52L111.55-3.52L111.55-3.52Q109.57 1.28 103.23 1.28L103.23 1.28L103.23 1.28Q99.97 1.28 97.92-0.96L97.92-0.96L97.92-0.96Q96.19-2.94 96.19-4.93L96.19-4.93L96.19-4.93Q96.19-10.11 98.56-20.22L98.56-20.22L100.93-32.64L113.92-33.92L110.02-13.70L110.02-13.70Q108.93-8.96 108.93-7.30L108.93-7.30L108.93-7.30Q108.93-3.65 111.55-3.52ZM102.08-41.54L102.08-41.54L102.08-41.54Q102.08-44.03 104.16-45.38L104.16-45.38L104.16-45.38Q106.24-46.72 109.25-46.72L109.25-46.72L109.25-46.72Q112.26-46.72 114.08-45.38L114.08-45.38L114.08-45.38Q115.90-44.03 115.90-41.54L115.90-41.54L115.90-41.54Q115.90-39.04 113.89-37.76L113.89-37.76L113.89-37.76Q111.87-36.48 108.86-36.48L108.86-36.48L108.86-36.48Q105.86-36.48 103.97-37.76L103.97-37.76L103.97-37.76Q102.08-39.04 102.08-41.54ZM140.22-31.55L140.22-31.55L140.22-31.55Q142.34-33.92 145.98-33.92L145.98-33.92L145.98-33.92Q148.22-33.92 149.95-32.70L149.95-32.70L149.95-32.70Q151.68-31.49 151.68-29.22L151.68-29.22L151.68-29.22Q151.68-26.94 150.98-24.51L150.98-24.51L150.98-24.51Q150.27-22.08 149.18-19.58L149.18-19.58L149.18-19.58Q147.01-14.72 144-10.69L144-10.69L144-10.69Q139.78-4.86 135.71-1.79L135.71-1.79L135.71-1.79Q131.65 1.28 127.23 1.28L127.23 1.28L127.23 1.28Q123.65 1.28 121.47 0.45L121.47 0.45L121.47 0.45Q121.09-12.99 120.61-17.79L120.61-17.79L120.61-17.79Q120.13-22.59 119.74-25.22L119.74-25.22L119.74-25.22Q119.10-30.34 117.18-31.55L117.18-31.55L117.18-31.55Q118.66-32.83 120.10-33.38L120.10-33.38L120.10-33.38Q121.54-33.92 124.51-33.92L124.51-33.92L124.51-33.92Q127.49-33.92 129.60-31.58L129.60-31.58L129.60-31.58Q131.71-29.25 132.13-25.12L132.13-25.12L132.13-25.12Q132.54-20.99 132.54-16L132.54-16L132.54-16Q132.54-11.01 132.16-4.99L132.16-4.99L132.16-4.99Q134.14-6.40 136.26-10.69L136.26-10.69L136.26-10.69Q139.14-16.64 140.16-23.81L140.16-23.81L140.16-23.81Q140.48-25.98 140.48-28.29L140.48-28.29L140.48-28.29Q140.48-30.59 140.22-31.55ZM156.19-1.92L156.19-1.92L156.19-1.92Q154.69-3.58 154.02-6.21L154.02-6.21L154.02-6.21Q153.34-8.83 153.34-13.12L153.34-13.12L153.34-13.12Q153.34-17.41 154.82-21.31L154.82-21.31L154.82-21.31Q156.29-25.22 158.98-28.03L158.98-28.03L158.98-28.03Q164.48-33.92 173.57-33.92L173.57-33.92L173.57-33.92Q176.83-33.92 179.20-32.83L179.20-32.83L190.14-33.92L185.41-8.96L185.41-8.96Q185.22-8.19 185.22-6.78L185.22-6.78L185.22-6.78Q185.22-5.38 186.08-4.48L186.08-4.48L186.08-4.48Q186.94-3.58 188.22-3.46L188.22-3.46L188.22-3.46Q187.58-1.28 185.25 0L185.25 0L185.25 0Q182.91 1.28 180.29 1.28L180.29 1.28L180.29 1.28Q177.66 1.28 175.90 0.29L175.90 0.29L175.90 0.29Q174.14-0.70 173.63-2.37L173.63-2.37L173.63-2.37Q172.61-0.77 170.43 0.26L170.43 0.26L170.43 0.26Q168.26 1.28 165.34 1.28L165.34 1.28L165.34 1.28Q162.43 1.28 160.06 0.51L160.06 0.51L160.06 0.51Q157.70-0.26 156.19-1.92ZM169.70-27.90L169.70-27.90L169.70-27.90Q168.96-26.75 168.32-24.80L168.32-24.80L168.32-24.80Q167.68-22.85 166.62-17.63L166.62-17.63L166.62-17.63Q165.57-12.42 165.57-8.70L165.57-8.70L165.57-8.70Q165.57-4.99 166.14-3.90L166.14-3.90L166.14-3.90Q166.72-2.82 167.74-2.82L167.74-2.82L167.74-2.82Q169.79-2.82 171.30-4.77L171.30-4.77L171.30-4.77Q172.80-6.72 173.38-10.18L173.38-10.18L176.77-28.93L176.77-28.93Q175.42-30.08 173.86-30.08L173.86-30.08L173.86-30.08Q172.29-30.08 171.36-29.57L171.36-29.57L171.36-29.57Q170.43-29.06 169.70-27.90ZM194.62-6.40L194.62-6.40L194.62-6.40Q194.62-8.13 195.52-12.48L195.52-12.48L198.91-29.76L195.14-29.76L195.39-31.68L195.39-31.68Q203.07-33.98 210.50-39.62L210.50-39.62L213.57-39.62L212.03-32.64L217.02-32.64L216.45-29.76L211.52-29.76L208.26-12.48L208.26-12.48Q207.42-8.51 207.42-7.17L207.42-7.17L207.42-7.17Q207.42-4.10 210.11-3.46L210.11-3.46L210.11-3.46Q209.47-1.28 207.17 0L207.17 0L207.17 0Q204.86 1.28 201.60 1.28L201.60 1.28L201.60 1.28Q198.34 1.28 196.48-0.77L196.48-0.77L196.48-0.77Q194.62-2.82 194.62-6.40ZM242.37-10.82L242.37-10.82L242.37-10.82Q243.97-9.73 243.97-7.33L243.97-7.33L243.97-7.33Q243.97-4.93 242.75-3.39L242.75-3.39L242.75-3.39Q241.54-1.86 239.55-0.83L239.55-0.83L239.55-0.83Q235.46 1.28 231.04 1.28L231.04 1.28L231.04 1.28Q226.62 1.28 224.03 0.32L224.03 0.32L224.03 0.32Q221.44-0.64 219.71-2.43L219.71-2.43L219.71-2.43Q216.32-5.82 216.32-12.03L216.32-12.03L216.32-12.03Q216.32-21.70 221.57-27.58L221.57-27.58L221.57-27.58Q227.20-33.92 236.99-33.92L236.99-33.92L236.99-33.92Q243.07-33.92 246.08-31.36L246.08-31.36L246.08-31.36Q248.32-29.44 248.32-26.30L248.32-26.30L248.32-26.30Q248.32-15.04 228.86-15.04L228.86-15.04L228.86-15.04Q228.61-13.38 228.61-11.97L228.61-11.97L228.61-11.97Q228.61-9.02 229.92-7.90L229.92-7.90L229.92-7.90Q231.23-6.78 233.66-6.78L233.66-6.78L233.66-6.78Q236.10-6.78 238.69-7.90L238.69-7.90L238.69-7.90Q241.28-9.02 242.37-10.82ZM229.31-17.79L229.31-17.79L229.31-17.79Q233.86-17.79 236.48-20.61L236.48-20.61L236.48-20.61Q239.10-23.30 239.10-27.58L239.10-27.58L239.10-27.58Q239.10-29.06 238.56-29.86L238.56-29.86L238.56-29.86Q238.02-30.66 236.93-30.66L236.93-30.66L236.93-30.66Q235.84-30.66 234.91-30.24L234.91-30.24L234.91-30.24Q233.98-29.82 233.02-28.42L233.02-28.42L233.02-28.42Q230.66-25.22 229.31-17.79ZM291.78 1.28L291.78 1.28L291.78 1.28Q283.58 1.28 282.82-10.37L282.82-10.37L271.81-10.37L271.81-10.37Q270.53-7.42 269.63-4.86L269.63-4.86L267.97 0L259.01 0L279.17-42.24L292.93-42.24L295.62-11.14L295.62-11.14Q296.26-4.42 298.82-2.43L298.82-2.43L298.82-2.43Q296.96 1.28 291.78 1.28ZM277.31-23.17L273.79-15.04L282.62-15.04L281.86-31.49L281.86-33.22L277.31-23.17ZM322.69-33.92L322.69-33.92L322.69-33.92Q324.99-33.92 326.78-33.41L326.78-33.41L326.78-33.41Q326.85-33.66 326.98-34.37L326.98-34.37L327.30-36.35L327.30-36.35Q327.55-37.63 327.94-39.74L327.94-39.74L328.96-44.80L341.70-46.08L334.59-8.96L334.59-8.96Q334.53-8.58 334.53-7.94L334.53-7.94L334.53-6.91L334.53-6.91Q334.53-5.50 335.23-4.45L335.23-4.45L335.23-4.45Q335.94-3.39 337.09-3.39L337.09-3.39L337.09-3.39Q335.81-0.38 331.90 0.90L331.90 0.90L331.90 0.90Q330.56 1.28 328.67 1.28L328.67 1.28L328.67 1.28Q326.78 1.28 325.06 0.29L325.06 0.29L325.06 0.29Q323.33-0.70 322.82-2.37L322.82-2.37L322.82-2.37Q321.79-0.70 319.74 0.29L319.74 0.29L319.74 0.29Q317.70 1.28 314.72 1.28L314.72 1.28L314.72 1.28Q311.74 1.28 309.28 0.51L309.28 0.51L309.28 0.51Q306.82-0.26 305.28-1.92L305.28-1.92L305.28-1.92Q302.46-5.18 302.46-12.61L302.46-12.61L302.46-12.61Q302.46-22.21 308.10-28.03L308.10-28.03L308.10-28.03Q313.73-33.92 322.69-33.92ZM322.24-30.08L322.24-30.08L322.24-30.08Q319.87-30.08 318.59-27.52L318.59-27.52L318.59-27.52Q317.31-24.96 316-18.62L316-18.62L316-18.62Q314.69-12.29 314.69-6.59L314.69-6.59L314.69-6.59Q314.69-2.69 316.99-2.69L316.99-2.69L316.99-2.69Q319.04-2.69 320.48-4.74L320.48-4.74L320.48-4.74Q321.92-6.78 322.50-10.18L322.50-10.18L325.95-28.93L325.95-28.93Q324.61-30.08 322.24-30.08ZM388.61 1.28L388.61 1.28L388.61 1.28Q380.86 1.28 380.86-4.74L380.86-4.74L380.86-4.74Q380.86-7.36 381.98-12.45L381.98-12.45L381.98-12.45Q383.10-17.54 383.49-19.58L383.49-19.58L383.49-19.58Q384.38-24.26 384.38-25.73L384.38-25.73L384.38-25.73Q384.38-28.99 381.95-28.99L381.95-28.99L381.95-28.99Q380.35-28.99 378.82-26.78L378.82-26.78L378.82-26.78Q377.28-24.58 376.58-20.16L376.58-20.16L372.61 0L360.13 1.28L363.58-16.13L363.58-16.13Q364.16-19.01 364.67-22.27L364.67-22.27L364.67-22.27Q365.18-25.54 365.18-26.05L365.18-26.05L365.18-26.05Q365.18-28.99 363.01-28.99L363.01-28.99L363.01-28.99Q361.54-28.99 359.94-26.82L359.94-26.82L359.94-26.82Q358.34-24.64 357.44-20.16L357.44-20.16L353.54 0L340.93 1.28L347.65-32.64L358.08-33.92L356.99-27.46L356.99-27.46Q358.66-30.91 361.73-32.42L361.73-32.42L361.73-32.42Q364.80-33.92 369.60-33.92L369.60-33.92L369.60-33.92Q372.35-33.92 374.14-32.58L374.14-32.58L374.14-32.58Q375.94-31.23 376.51-29.06L376.51-29.06L376.51-29.06Q377.60-31.30 380.38-32.61L380.38-32.61L380.38-32.61Q383.17-33.92 386.59-33.92L386.59-33.92L386.59-33.92Q390.02-33.92 391.71-33.18L391.71-33.18L391.71-33.18Q393.41-32.45 394.43-31.23L394.43-31.23L394.43-31.23Q396.16-28.99 396.16-24.90L396.16-24.90L396.16-24.90Q396.16-20.86 394.43-12.48L394.43-12.48L394.43-12.48Q393.54-8.38 393.54-6.88L393.54-6.88L393.54-6.88Q393.54-5.38 394.40-4.48L394.40-4.48L394.40-4.48Q395.26-3.58 396.54-3.46L396.54-3.46L396.54-3.46Q395.90-1.28 393.70 0L393.70 0L393.70 0Q391.49 1.28 388.61 1.28ZM416.83-3.52L416.83-3.52L416.83-3.52Q414.85 1.28 408.51 1.28L408.51 1.28L408.51 1.28Q405.25 1.28 403.20-0.96L403.20-0.96L403.20-0.96Q401.47-2.94 401.47-4.93L401.47-4.93L401.47-4.93Q401.47-10.11 403.84-20.22L403.84-20.22L406.21-32.64L419.20-33.92L415.30-13.70L415.30-13.70Q414.21-8.96 414.21-7.30L414.21-7.30L414.21-7.30Q414.21-3.65 416.83-3.52ZM407.36-41.54L407.36-41.54L407.36-41.54Q407.36-44.03 409.44-45.38L409.44-45.38L409.44-45.38Q411.52-46.72 414.53-46.72L414.53-46.72L414.53-46.72Q417.54-46.72 419.36-45.38L419.36-45.38L419.36-45.38Q421.18-44.03 421.18-41.54L421.18-41.54L421.18-41.54Q421.18-39.04 419.17-37.76L419.17-37.76L419.17-37.76Q417.15-36.48 414.14-36.48L414.14-36.48L414.14-36.48Q411.14-36.48 409.25-37.76L409.25-37.76L409.25-37.76Q407.36-39.04 407.36-41.54ZM449.34 1.28L449.34 1.28L449.34 1.28Q441.60 1.28 441.60-4.74L441.60-4.74L441.60-4.74Q441.66-6.40 442.18-9.22L442.18-9.22L443.33-15.10L443.33-15.10Q445.06-23.42 445.06-25.28L445.06-25.28L445.06-25.28Q445.06-28.99 442.88-28.99L442.88-28.99L442.88-28.99Q439.23-28.99 437.31-19.46L437.31-19.46L433.54 0L420.67 1.28L427.33-32.70L437.82-33.92L436.80-27.65L436.80-27.65Q439.81-33.92 449.02-33.92L449.02-33.92L449.02-33.92Q453.50-33.92 455.39-32.03L455.39-32.03L455.39-32.03Q457.28-30.14 457.28-25.92L457.28-25.92L457.28-25.92Q457.28-21.95 455.23-12.67L455.23-12.67L455.23-12.67Q454.27-8.51 454.27-6.94L454.27-6.94L454.27-6.94Q454.27-5.38 455.14-4.48L455.14-4.48L455.14-4.48Q456-3.58 457.28-3.46L457.28-3.46L457.28-3.46Q456.64-1.28 454.43 0L454.43 0L454.43 0Q452.22 1.28 449.34 1.28ZM477.76-3.52L477.76-3.52L477.76-3.52Q475.78 1.28 469.44 1.28L469.44 1.28L469.44 1.28Q466.18 1.28 464.13-0.96L464.13-0.96L464.13-0.96Q462.40-2.94 462.40-4.93L462.40-4.93L462.40-4.93Q462.40-10.11 464.77-20.22L464.77-20.22L467.14-32.64L480.13-33.92L476.22-13.70L476.22-13.70Q475.14-8.96 475.14-7.30L475.14-7.30L475.14-7.30Q475.14-3.65 477.76-3.52ZM468.29-41.54L468.29-41.54L468.29-41.54Q468.29-44.03 470.37-45.38L470.37-45.38L470.37-45.38Q472.45-46.72 475.46-46.72L475.46-46.72L475.46-46.72Q478.46-46.72 480.29-45.38L480.29-45.38L480.29-45.38Q482.11-44.03 482.11-41.54L482.11-41.54L482.11-41.54Q482.11-39.04 480.10-37.76L480.10-37.76L480.10-37.76Q478.08-36.48 475.07-36.48L475.07-36.48L475.07-36.48Q472.06-36.48 470.18-37.76L470.18-37.76L470.18-37.76Q468.29-39.04 468.29-41.54ZM502.34-22.46L502.34-22.46L502.34-22.46Q503.23-24.83 503.23-26.88L503.23-26.88L503.23-26.88Q503.23-30.66 500.16-30.66L500.16-30.66L500.16-30.66Q498.56-30.66 497.25-29.22L497.25-29.22L497.25-29.22Q495.94-27.78 495.94-25.98L495.94-25.98L495.94-25.98Q495.94-24.70 496.96-23.68L496.96-23.68L496.96-23.68Q498.43-22.27 502.21-19.97L502.21-19.97L502.21-19.97Q505.98-17.66 507.42-15.78L507.42-15.78L507.42-15.78Q508.86-13.89 508.86-11.30L508.86-11.30L508.86-11.30Q508.86-8.70 507.62-6.34L507.62-6.34L507.62-6.34Q506.37-3.97 504.13-2.30L504.13-2.30L504.13-2.30Q499.33 1.28 491.65 1.28L491.65 1.28L491.65 1.28Q487.49 1.28 484.29-0.90L484.29-0.90L484.29-0.90Q481.09-3.01 481.09-5.50L481.09-5.50L481.09-5.50Q481.09-8 482.91-9.47L482.91-9.47L482.91-9.47Q484.74-10.94 487.42-10.94L487.42-10.94L487.42-10.94Q490.11-10.94 491.78-9.92L491.78-9.92L491.78-9.92Q490.94-7.81 490.94-6.40L490.94-6.40L490.94-6.40Q490.94-2.18 494.53-2.18L494.53-2.18L494.53-2.18Q496.06-2.18 497.09-3.14L497.09-3.14L497.09-3.14Q498.11-4.10 498.11-5.76L498.11-5.76L498.11-5.76Q498.11-9.02 492.61-12.48L492.61-12.48L492.61-12.48Q488.13-15.42 487.10-16.58L487.10-16.58L487.10-16.58Q485.38-18.62 485.38-21.18L485.38-21.18L485.38-21.18Q485.38-23.74 486.59-26.18L486.59-26.18L486.59-26.18Q487.81-28.61 490.05-30.34L490.05-30.34L490.05-30.34Q494.72-33.92 502.85-33.92L502.85-33.92L502.85-33.92Q507.01-33.92 509.47-32.26L509.47-32.26L509.47-32.26Q511.94-30.59 511.94-27.78L511.94-27.78L511.94-27.78Q511.94-24.96 510.24-23.36L510.24-23.36L510.24-23.36Q508.54-21.76 505.47-21.76L505.47-21.76L505.47-21.76Q503.36-21.76 502.34-22.46ZM515.33-6.40L515.33-6.40L515.33-6.40Q515.33-8.13 516.22-12.48L516.22-12.48L519.62-29.76L515.84-29.76L516.10-31.68L516.10-31.68Q523.78-33.98 531.20-39.62L531.20-39.62L534.27-39.62L532.74-32.64L537.73-32.64L537.15-29.76L532.22-29.76L528.96-12.48L528.96-12.48Q528.13-8.51 528.13-7.17L528.13-7.17L528.13-7.17Q528.13-4.10 530.82-3.46L530.82-3.46L530.82-3.46Q530.18-1.28 527.87 0L527.87 0L527.87 0Q525.57 1.28 522.30 1.28L522.30 1.28L522.30 1.28Q519.04 1.28 517.18-0.77L517.18-0.77L517.18-0.77Q515.33-2.82 515.33-6.40ZM557.44-17.98L557.44-17.98L557.44-17.98Q559.74-22.08 559.74-26.24L559.74-26.24L559.74-26.24Q559.74-28.99 557.76-28.99L557.76-28.99L557.76-28.99Q556.22-28.99 554.62-26.37L554.62-26.37L554.62-26.37Q552.96-23.74 552.45-20.35L552.45-20.35L549.12 0L535.87 1.28L542.40-32.64L552.96-33.92L551.81-27.46L551.81-27.46Q554.94-33.92 561.98-33.92L561.98-33.92L561.98-33.92Q565.70-33.92 567.71-32L567.71-32L567.71-32Q569.73-30.08 569.73-26.14L569.73-26.14L569.73-26.14Q569.73-22.21 567.14-19.71L567.14-19.71L567.14-19.71Q564.54-17.22 560.13-17.22L560.13-17.22L560.13-17.22Q558.21-17.22 557.44-17.98ZM573.54-1.92L573.54-1.92L573.54-1.92Q572.03-3.58 571.36-6.21L571.36-6.21L571.36-6.21Q570.69-8.83 570.69-13.12L570.69-13.12L570.69-13.12Q570.69-17.41 572.16-21.31L572.16-21.31L572.16-21.31Q573.63-25.22 576.32-28.03L576.32-28.03L576.32-28.03Q581.82-33.92 590.91-33.92L590.91-33.92L590.91-33.92Q594.18-33.92 596.54-32.83L596.54-32.83L607.49-33.92L602.75-8.96L602.75-8.96Q602.56-8.19 602.56-6.78L602.56-6.78L602.56-6.78Q602.56-5.38 603.42-4.48L603.42-4.48L603.42-4.48Q604.29-3.58 605.57-3.46L605.57-3.46L605.57-3.46Q604.93-1.28 602.59 0L602.59 0L602.59 0Q600.26 1.28 597.63 1.28L597.63 1.28L597.63 1.28Q595.01 1.28 593.25 0.29L593.25 0.29L593.25 0.29Q591.49-0.70 590.98-2.37L590.98-2.37L590.98-2.37Q589.95-0.77 587.78 0.26L587.78 0.26L587.78 0.26Q585.60 1.28 582.69 1.28L582.69 1.28L582.69 1.28Q579.78 1.28 577.41 0.51L577.41 0.51L577.41 0.51Q575.04-0.26 573.54-1.92ZM587.04-27.90L587.04-27.90L587.04-27.90Q586.30-26.75 585.66-24.80L585.66-24.80L585.66-24.80Q585.02-22.85 583.97-17.63L583.97-17.63L583.97-17.63Q582.91-12.42 582.91-8.70L582.91-8.70L582.91-8.70Q582.91-4.99 583.49-3.90L583.49-3.90L583.49-3.90Q584.06-2.82 585.09-2.82L585.09-2.82L585.09-2.82Q587.14-2.82 588.64-4.77L588.64-4.77L588.64-4.77Q590.14-6.72 590.72-10.18L590.72-10.18L594.11-28.93L594.11-28.93Q592.77-30.08 591.20-30.08L591.20-30.08L591.20-30.08Q589.63-30.08 588.70-29.57L588.70-29.57L588.70-29.57Q587.78-29.06 587.04-27.90ZM611.97-6.40L611.97-6.40L611.97-6.40Q611.97-8.13 612.86-12.48L612.86-12.48L616.26-29.76L612.48-29.76L612.74-31.68L612.74-31.68Q620.42-33.98 627.84-39.62L627.84-39.62L630.91-39.62L629.38-32.64L634.37-32.64L633.79-29.76L628.86-29.76L625.60-12.48L625.60-12.48Q624.77-8.51 624.77-7.17L624.77-7.17L624.77-7.17Q624.77-4.10 627.46-3.46L627.46-3.46L627.46-3.46Q626.82-1.28 624.51 0L624.51 0L624.51 0Q622.21 1.28 618.94 1.28L618.94 1.28L618.94 1.28Q615.68 1.28 613.82-0.77L613.82-0.77L613.82-0.77Q611.97-2.82 611.97-6.40ZM649.41-3.52L649.41-3.52L649.41-3.52Q647.42 1.28 641.09 1.28L641.09 1.28L641.09 1.28Q637.82 1.28 635.78-0.96L635.78-0.96L635.78-0.96Q634.05-2.94 634.05-4.93L634.05-4.93L634.05-4.93Q634.05-10.11 636.42-20.22L636.42-20.22L638.78-32.64L651.78-33.92L647.87-13.70L647.87-13.70Q646.78-8.96 646.78-7.30L646.78-7.30L646.78-7.30Q646.78-3.65 649.41-3.52ZM639.94-41.54L639.94-41.54L639.94-41.54Q639.94-44.03 642.02-45.38L642.02-45.38L642.02-45.38Q644.10-46.72 647.10-46.72L647.10-46.72L647.10-46.72Q650.11-46.72 651.94-45.38L651.94-45.38L651.94-45.38Q653.76-44.03 653.76-41.54L653.76-41.54L653.76-41.54Q653.76-39.04 651.74-37.76L651.74-37.76L651.74-37.76Q649.73-36.48 646.72-36.48L646.72-36.48L646.72-36.48Q643.71-36.48 641.82-37.76L641.82-37.76L641.82-37.76Q639.94-39.04 639.94-41.54ZM668.80 1.28L668.80 1.28L668.80 1.28Q654.72 1.28 654.72-11.97L654.72-11.97L654.72-11.97Q654.72-21.38 659.90-27.46L659.90-27.46L659.90-27.46Q665.41-33.92 674.94-33.92L674.94-33.92L674.94-33.92Q681.86-33.92 685.38-30.72L685.38-30.72L685.38-30.72Q688.90-27.52 688.90-20.80L688.90-20.80L688.90-20.80Q688.90-10.56 683.39-4.61L683.39-4.61L683.39-4.61Q678.02 1.28 668.80 1.28ZM670.46-26.56L670.46-26.56L670.46-26.56Q669.70-24.83 669.09-22.24L669.09-22.24L669.09-22.24Q668.48-19.65 667.71-15.55L667.71-15.55L667.71-15.55Q666.94-11.46 666.94-6.40L666.94-6.40L666.94-6.40Q666.94-4.74 667.49-3.65L667.49-3.65L667.49-3.65Q668.03-2.56 669.50-2.56L669.50-2.56L669.50-2.56Q670.98-2.56 671.90-3.26L671.90-3.26L671.90-3.26Q672.83-3.97 673.54-5.63L673.54-5.63L673.54-5.63Q674.82-8.58 675.84-14.05L675.84-14.05L675.84-14.05Q676.86-19.52 676.96-21.89L676.96-21.89L676.96-21.89Q677.06-24.26 677.06-26.02L677.06-26.02L677.06-26.02Q677.06-27.78 676.54-28.93L676.54-28.93L676.54-28.93Q676.03-30.08 674.59-30.08L674.59-30.08L674.59-30.08Q673.15-30.08 672.19-29.18L672.19-29.18L672.19-29.18Q671.23-28.29 670.46-26.56ZM719.74 1.28L719.74 1.28L719.74 1.28Q712.00 1.28 712.00-4.74L712.00-4.74L712.00-4.74Q712.06-6.40 712.58-9.22L712.58-9.22L713.73-15.10L713.73-15.10Q715.46-23.42 715.46-25.28L715.46-25.28L715.46-25.28Q715.46-28.99 713.28-28.99L713.28-28.99L713.28-28.99Q709.63-28.99 707.71-19.46L707.71-19.46L703.94 0L691.07 1.28L697.73-32.70L708.22-33.92L707.20-27.65L707.20-27.65Q710.21-33.92 719.42-33.92L719.42-33.92L719.42-33.92Q723.90-33.92 725.79-32.03L725.79-32.03L725.79-32.03Q727.68-30.14 727.68-25.92L727.68-25.92L727.68-25.92Q727.68-21.95 725.63-12.67L725.63-12.67L725.63-12.67Q724.67-8.51 724.67-6.94L724.67-6.94L724.67-6.94Q724.67-5.38 725.54-4.48L725.54-4.48L725.54-4.48Q726.40-3.58 727.68-3.46L727.68-3.46L727.68-3.46Q727.04-1.28 724.83 0L724.83 0L724.83 0Q722.62 1.28 719.74 1.28Z" fill="#ccc"></path></g></g><style>text {
  font-size: 64px;
  font-family: Arial Black;
  dominant-baseline: central;
  text-anchor: middle;
}</style></svg>